<svg id="Info_Icon" data-name="Info Icon" xmlns="http://www.w3.org/2000/svg" viewBox="0 0 30 30" width="100%" height="100%"><defs><style>.cls-1{fill:#999;}.cls-2{fill:#fff;}</style></defs><circle class="cls-1" cx="15" cy="15" r="15"/><path class="cls-2" d="M18.3,14s-2.1,5-2.49,5.88c-.5,1.27.29,1.21,1.47.52S18.69,20,18.69,20s.25.17-.35,1.23S15.85,25.46,13,25.3c-2.26-.13-2.55-1.46-2.48-2.66s2.55-7.31,2.85-8c.16-.34,1.5-3-2.93-.94,0,0-.46.13.27-.73,2.93-3.43,5.6-3.34,6.37-3.29C18.28,9.79,19.89,10.57,18.3,14Z"/><circle class="cls-2" cx="17.58" cy="6.63" r="2.31"/></svg>